<svg width="102" height="36" fill="none" xmlns="http://www.w3.org/2000/svg"><path fill-rule="evenodd" clip-rule="evenodd" d="M9.421 0h16.701c5.208 0 9.421 4.268 9.421 9.542v16.916c0 5.274-4.213 9.542-9.42 9.542H9.42C4.214 36 0 31.732 0 26.458V9.542C0 4.268 4.214 0 9.421 0ZM6.535 9.586H2.98v16.829h3.554V9.585Zm5.241 12.361c.018-.876.155-1.449.42-1.718.197-.268.505-.45.908-.555.394-.104.411-.095 1.242-.104h.942c1.73 0 2.133-.26 2.998-.78.582-.356.942-.946 1.276-1.7.334-.747.496-1.614.496-2.586 0-.79-.137-1.527-.402-2.203-.266-.686-.651-1.223-1.148-1.631-.83-.72-1.524-1.084-4.436-1.084H8.505v3.001h4.822c.933 0 1.601.13 2.02.382.549.355.823.91.823 1.665 0 .694-.3 1.215-.9 1.562-.385.216-.727.33-1.644.33h-.573c-1.131 0-1.405.077-1.936.225-.531.147-1.02.442-1.473.885-.96.989-1.43 2.429-1.396 4.311v4.468h11.374v-2.976h-7.863v-1.492h.017Zm14.338 4.468c1.242 0 2.175-.061 2.8-.191.626-.13 1.2-.365 1.73-.72 1.2-.772 1.79-1.96 1.79-3.557 0-1.735-.736-3.088-2.218-4.06 1.482-.876 2.218-2.09 2.218-3.66 0-.911-.17-1.796-.668-2.594-.496-.859-1.259-1.405-2.124-1.726a4.179 4.179 0 0 0-1.01-.252c-.309-.035-1.01-.06-2.107-.078H21.78v3.001h4.128c.582 0 .994.018 1.233.061.24.043.454.13.634.269.497.338.745.876.745 1.613 0 .677-.188 1.171-.573 1.492-.317.27-.994.408-2.039.408h-2.552v2.976h2.552c.865 0 1.473.104 1.816.303.548.321.822.902.822 1.744 0 .694-.214 1.214-.65 1.561-.352.287-1.012.425-1.996.425H21.77v2.976h4.343v.009ZM72.586 15.935h1.798l-.017 4.077h4.462l.026-4.085h14.02v.485c0 .191-.068.373-.197.52a.82.82 0 0 1-.548.2h-2.655v2.872h4.9c.453 0 .847-.087 1.19-.26.368-.174.685-.4.968-.686.256-.243.48-.564.676-.98.146-.33.223-.729.223-1.206v-.945h2.081V13.22h-2.081V9.715c0-.798-.197-1.934-2.253-1.934h-9.883l-.009-1.275h-4.993l-.017 1.275h-3.871c-1.123 0-2.022.92-2.022 2.047v3.4h-1.798v2.707ZM83.24 13.23h-4.385v-2.646h13.078c.386 0 .634.07.754.2s.18.355.18.685v1.76h-5.088l-.856-2.246h-4.505l.822 2.247ZM72.02 29.563h27.604v-2.706H98.34v-2.67c0-1.567.001-2.969-2.51-2.969H73.048v5.639H72.02v2.706Zm8.248-2.706h-2.706v-2.932h2.706v2.932Zm4.085-2.941h2.861v2.932h-2.86v-2.932Zm6.904 2.932v-2.932l2.843.017-.008 2.915h-2.835Z" fill="#597DFC"/><path d="M87.009 16.517h-4.505l1.164 3.131h4.471l-1.13-3.131ZM41.376 18.173h5.567l-3.828 8.085c-.737 1.553.385 3.357 2.09 3.357h19.904c1.713 0 2.843-1.804 2.098-3.365l-2.552-5.361h-4.702l2.252 5.37H47.877l3.828-8.086h17.832v-3.357H41.376v3.357ZM67.635 6.957H43.27v3.357h24.366V6.957Z" fill="#597DFC"/></svg>